<?xml version="1.0" encoding="UTF-8"?>
<svg width="120px" height="120px" viewBox="0 0 120 120" version="1.1" xmlns="http://www.w3.org/2000/svg" xmlns:xlink="http://www.w3.org/1999/xlink">
    <!-- Generator: Sketch 53.2 (72643) - https://sketchapp.com -->
    <title>?</title>
    <desc>Created with Sketch.</desc>
    <g id="app" stroke="none" stroke-width="1" fill="none" fill-rule="evenodd">
        <g id="sign-up/sign-in" transform="translate(-128.000000, -58.000000)">
            <g id="Sign-in" transform="translate(0.000000, 22.000000)">
                <g id="?" transform="translate(128.000000, 36.000000)">
                    <g id="Group-3-Copy">
                        <ellipse id="Oval" fill="#45B8FF" cx="60" cy="59.8290598" rx="60" ry="59.8290598"></ellipse>
                        <path d="M36.41624,114.859288 C15.0033202,105.722933 0,84.5231114 0,59.8290598 C0,26.7863825 26.862915,-7.10542736e-15 60,-7.10542736e-15 C93.137085,-7.10542736e-15 120,26.7863825 120,59.8290598 C120,66.6415649 118.858131,73.1881319 116.754829,79.2888384 C90.2335148,65.7049563 69.4636833,70.6068019 54.4453346,93.9943749 C48.7378154,102.882504 42.7281172,109.837475 36.41624,114.859288 Z" id="Combined-Shape" fill="#6DE4FF" opacity="0.395717076"></path>
                        <path d="M1.20882634,47.8210362 C6.78441682,20.5332113 30.9874631,-6.21724894e-15 60,-6.21724894e-15 C79.6170056,-6.21724894e-15 97.0351738,9.38752039 107.982958,23.9031845 C67.4067544,27.006008 61.8971904,43.9535201 47.4801265,57.555399 C30.7838604,73.3076069 8.28805036,64.3185847 1.20882832,47.8210264 Z" id="Combined-Shape-Copy" fill="#9BECFF" opacity="0.395717076"></path>
                    </g>
                    <path d="M59.3266606,77.6035132 C58.1255627,77.6035132 57.1292123,77.2049989 56.3375796,76.4079584 C55.5459469,75.6109179 55.1501365,74.6077613 55.1501365,73.3984585 C55.1501365,71.2546944 55.6960819,68.9048344 56.7879891,66.348808 C57.8798963,63.7927816 59.572327,61.5253729 61.8653321,59.5465137 C63.3940022,58.2272743 64.7998116,56.9217965 66.0828025,55.6300412 C67.3657935,54.3382859 68.4030898,52.8541638 69.1947225,51.1776304 C69.9863552,49.501097 70.3821656,47.4535581 70.3821656,45.0349525 C70.3821656,43.2759666 69.9727066,41.626942 69.1537762,40.0878294 C68.3348458,38.5487167 67.1747118,37.2982064 65.6733394,36.336261 C64.171967,35.3743156 62.3294013,34.8933501 60.1455869,34.8933501 C57.4704143,34.8933501 55.2593354,35.3880574 53.5122839,36.377487 C51.7652324,37.3669166 50.4686121,38.7411037 49.622384,40.5000896 C48.7761559,42.2590755 48.3530482,44.3203562 48.3530482,46.6839935 C48.3530482,47.8932964 47.9708864,48.896453 47.2065514,49.6934935 C46.4422164,50.4905339 45.4322174,50.8890482 44.1765241,50.8890482 C42.9754262,50.8890482 41.9790758,50.4905339 41.1874431,49.6934935 C40.3958104,48.896453 40,47.8932964 40,46.6839935 C40,42.8362119 40.8325667,39.4557115 42.4977252,36.5423911 C44.1628837,33.6290707 46.5104489,31.3341782 49.5404914,29.6576447 C52.5705338,27.9811113 56.1055303,27.1428571 60.1455869,27.1428571 C63.6942853,27.1428571 66.84712,27.8986601 69.6041856,29.4102886 C72.3612513,30.9219171 74.5450329,33.0106815 76.155596,35.6766446 C77.7661591,38.3426076 78.5714286,41.4620124 78.5714286,45.0349525 C78.5714286,48.1131778 78.0800777,50.7791009 77.0973612,53.0328016 C76.1146448,55.2865023 74.7770785,57.3065574 73.0846224,59.0930274 C71.3921662,60.8794975 69.4540601,62.6521989 67.2702457,64.4111848 C65.8507663,65.5655193 64.8680646,67.0633833 64.322111,68.9048217 C63.7761574,70.74626 63.5031847,72.244124 63.5031847,73.3984585 C63.5031847,74.6077613 63.1210229,75.6109179 62.3566879,76.4079584 C61.5923529,77.2049989 60.5823539,77.6035132 59.3266606,77.6035132 Z M59.3266606,92.8571429 C57.7979905,92.8571429 56.4740729,92.2937261 55.3548681,91.1668758 C54.2356632,90.0400254 53.6760692,88.7070639 53.6760692,87.1679512 C53.6760692,85.5738703 54.2356632,84.213425 55.3548681,83.0865747 C56.4740729,81.9597243 57.7979905,81.3963076 59.3266606,81.3963076 C60.909926,81.3963076 62.2611409,81.9597243 63.3803458,83.0865747 C64.4995506,84.213425 65.0591447,85.5738703 65.0591447,87.1679512 C65.0591447,88.7070639 64.4995506,90.0400254 63.3803458,91.1668758 C62.2611409,92.2937261 60.909926,92.8571429 59.3266606,92.8571429 Z" fill="#FFFFFF" fill-rule="nonzero"></path>
                </g>
            </g>
        </g>
    </g>
</svg>