<?xml version="1.0" encoding="utf-8"?>
<!-- Generator: Adobe Illustrator 22.1.0, SVG Export Plug-In . SVG Version: 6.00 Build 0)  -->
<svg version="1.1" id="Слой_1" xmlns="http://www.w3.org/2000/svg" xmlns:xlink="http://www.w3.org/1999/xlink" x="0px" y="0px"
	 viewBox="0 0 357 535" style="enable-background:new 0 0 357 535;" xml:space="preserve">
<style type="text/css">
	.st0{filter:url(#filter-2);}
	.st1{fill:#F6FAFF;}
	.st2{fill:#6CADFF;}
	.st3{fill:none;stroke:#000000;stroke-width:12;}
	.st4{fill:#1A1A1A;}
	.st5{fill:#FFFFFF;}
	.st6{font-family:'Kodchasan-Medium';}
	.st7{font-size:22px;}
	.st8{filter:url(#filter-4);}
	.st9{fill:#50525B;}
	.st10{font-family:'Arial-BoldMT';}
	.st11{font-size:16px;}
	.st12{fill:#D3DBE7;}
	.st13{font-size:14px;}
	.st14{fill:#AFF265;}
	.st15{fill:#FFEB5D;}
	.st16{fill:#E5EBF6;}
	.st17{fill:#FF9861;}
	.st18{fill:#6CD8FF;}
	.st19{fill:none;stroke:#FFFFFF;stroke-width:6;stroke-linecap:round;stroke-linejoin:round;}
</style>
<filter  filterUnits="objectBoundingBox" height="103.8%" id="filter-4" width="104.5%" x="-2.2%" y="-1.3%">
	<feMorphology  in="SourceAlpha" operator="erode" radius="1.5" result="shadowSpreadOuter1"></feMorphology>
	<feOffset  dx="0" dy="2" in="shadowSpreadOuter1" result="shadowOffsetOuter1"></feOffset>
	<feGaussianBlur  in="shadowOffsetOuter1" result="shadowBlurOuter1" stdDeviation="3.5"></feGaussianBlur>
	
		<feColorMatrix  in="shadowBlurOuter1" type="matrix" values="0 0 0 0 0.666535488   0 0 0 0 0.764391284   0 0 0 0 0.823228034  0 0 0 1 0">
		</feColorMatrix>
</filter>
<filter  filterUnits="objectBoundingBox" height="114.7%" id="filter-2" width="128.8%" x="-14.8%" y="-6.7%">
	<feMorphology  in="SourceAlpha" operator="dilate" radius="3" result="shadowSpreadOuter1"></feMorphology>
	<feOffset  dx="-1" dy="3" in="shadowSpreadOuter1" result="shadowOffsetOuter1"></feOffset>
	<feGaussianBlur  in="shadowOffsetOuter1" result="shadowBlurOuter1" stdDeviation="8.5"></feGaussianBlur>
	
		<feColorMatrix  in="shadowBlurOuter1" type="matrix" values="0 0 0 0 0.368526519   0 0 0 0 0.489322469   0 0 0 0 0.582257699  0 0 0 0.348776224 0">
		</feColorMatrix>
</filter>
<title>phone</title>
<desc>Created with Sketch.</desc>
<g id="landing">
	<g id="_x32_" transform="translate(-143.000000, -52.000000)">
		<g id="phone" transform="translate(167.000000, 71.000000)">
			<g id="Group-8">
				<g id="Rectangle">
					<g class="st0">
						<path id="path-1_2_" d="M40,1h170c22.1,0,40,17.9,40,40v409c0,22.1-17.9,40-40,40H40c-22.1,0-40-17.9-40-40V41
							C0,18.9,17.9,1,40,1z"/>
					</g>
					<g>
						<path id="path-1_1_" class="st1" d="M40,1h170c22.1,0,40,17.9,40,40v409c0,22.1-17.9,40-40,40H40c-22.1,0-40-17.9-40-40V41
							C0,18.9,17.9,1,40,1z"/>
					</g>
				</g>
				<path id="Rectangle-Copy-3" class="st2" d="M30,1h190c16.6,0,30,13.4,30,30v22H0V31C0,14.4,13.4,1,30,1z"/>
				<path id="Rectangle-Copy" class="st3" d="M34-5h182c22.1,0,40,17.9,40,40v421c0,22.1-17.9,40-40,40H34c-22.1,0-40-17.9-40-40V35
					C-6,12.9,11.9-5,34-5z"/>
				<path id="Rectangle_1_" d="M57,0h136v6c0,5.5-4.5,10-10,10H67c-5.5,0-10-4.5-10-10V0z"/>
				<path id="Combined-Shape" class="st4" d="M106,3h38c1.1,0,2,0.9,2,2s-0.9,2-2,2h-38c-1.1,0-2-0.9-2-2S104.9,3,106,3z M152,3
					c1.1,0,2,0.9,2,2s-0.9,2-2,2s-2-0.9-2-2S150.9,3,152,3z"/>
				<text transform="matrix(1 0 0 1 64.664 43)" class="st5 st6 st7">My lessons</text>
			</g>
			<g id="уроки" transform="translate(17.000000, 70.000000)">
				<g id="Combined-Shape_1_">
					<g class="st8">
						<path id="path-3_2_" d="M27,288h258c14.9,0,27,12.1,27,27v30c0,14.9-12.1,27-27,27H27c-14.9,0-27-12.1-27-27v-30
							C0,300.1,12.1,288,27,288z M27,192h242c14.9,0,27,12.1,27,27v30c0,14.9-12.1,27-27,27H27c-14.9,0-27-12.1-27-27v-30
							C0,204.1,12.1,192,27,192z M27,96h226c14.9,0,27,12.1,27,27v30c0,14.9-12.1,27-27,27H27c-14.9,0-27-12.1-27-27v-30
							C0,108.1,12.1,96,27,96z M27,0h210c14.9,0,27,12.1,27,27v30c0,14.9-12.1,27-27,27H27C12.1,84,0,71.9,0,57V27
							C0,12.1,12.1,0,27,0z"/>
					</g>
					<g>
						<path id="path-3_1_" class="st5" d="M27,288h258c14.9,0,27,12.1,27,27v30c0,14.9-12.1,27-27,27H27c-14.9,0-27-12.1-27-27v-30
							C0,300.1,12.1,288,27,288z M27,192h242c14.9,0,27,12.1,27,27v30c0,14.9-12.1,27-27,27H27c-14.9,0-27-12.1-27-27v-30
							C0,204.1,12.1,192,27,192z M27,96h226c14.9,0,27,12.1,27,27v30c0,14.9-12.1,27-27,27H27c-14.9,0-27-12.1-27-27v-30
							C0,108.1,12.1,96,27,96z M27,0h210c14.9,0,27,12.1,27,27v30c0,14.9-12.1,27-27,27H27C12.1,84,0,71.9,0,57V27
							C0,12.1,12.1,0,27,0z"/>
					</g>
				</g>
				<text transform="matrix(1 0 0 1 22 322)" class="st9 st10 st11">4.  The expert in everything...</text>
				<text transform="matrix(1 0 0 1 22 343)" class="st12 st10 st13">2 days ago</text>
				<g id="Group" transform="translate(268.000000, 319.000000)">
					<circle id="Oval-Copy" class="st14" cx="11" cy="11" r="11"/>
					<circle id="Oval" class="st5" cx="11" cy="11" r="7.3"/>
				</g>
				<text transform="matrix(1 0 0 1 22 226)" class="st9 st10 st11">3. And EASYLANG</text>
				<text transform="matrix(1 0 0 1 162.8006 226)" class="st9 st10 st11"> </text>
				<text transform="matrix(1 0 0 1 162.8006 226)" class="st9 st6 st11">…</text>
				<text transform="matrix(1 0 0 1 22 247)" class="st12 st10 st13">3 days ago</text>
				
					<g id="Group_1_" transform="translate(263.000000, 233.000000) scale(-1, 1) translate(-263.000000, -233.000000) translate(252.000000, 222.000000)">
					<circle id="Oval-Copy_1_" class="st14" cx="11" cy="11" r="11"/>
					<path id="Oval-Copy-9" class="st15" d="M11,22c0-4.9,0-16,0-22C4.9,0,0,4.9,0,11S4.9,22,11,22z"/>
					<circle id="Oval_1_" class="st5" cx="11" cy="11" r="7.3"/>
				</g>
				<text transform="matrix(1 0 0 1 22 130)" class="st9 st10 st11">2. Is getting better…</text>
				<text transform="matrix(1 0 0 1 22 151)" class="st12 st10 st13">4 days ago</text>
				<text transform="matrix(1 0 0 1 21 34)" class="st9 st10 st11">1. I study…</text>
				<text transform="matrix(1 0 0 1 21 55)" class="st12 st10 st13">5 days ago</text>
				<circle id="Oval_2_" class="st16" cx="231" cy="42" r="11"/>
				<g id="Group_2_" transform="translate(241.000000, 127.000000)">
					<circle id="Oval-Copy_2_" class="st17" cx="11" cy="11" r="11"/>
					<path id="Oval-Copy-2" class="st15" d="M11,22V0C4.9,0,0,4.9,0,11S4.9,22,11,22z"/>
					<circle id="Oval_3_" class="st5" cx="11" cy="11" r="7.3"/>
				</g>
			</g>
			<g id="добавить-copy" transform="translate(173.000000, 416.000000)">
				<circle id="Oval-Copy_3_" class="st5" cx="27" cy="27" r="27"/>
				<circle id="Oval-Copy-2_1_" class="st18" cx="27.5" cy="27.5" r="22.6"/>
				<path id="Combined-Shape_2_" class="st19" d="M27.5,27.5v-7.9V27.5h-7.9H27.5z M27.5,27.5h7.9H27.5v7.9V27.5z"/>
			</g>
		</g>
	</g>
</g>
</svg>
